<?xml version="1.0"?>
<svg xmlns="http://www.w3.org/2000/svg" xmlns:xlink="http://www.w3.org/1999/xlink" xmlns:svgjs="http://svgjs.com/svgjs" version="1.1" width="512" height="512" x="0" y="0" viewBox="0 0 479.971 479.971" style="enable-background:new 0 0 512 512" xml:space="preserve" class=""><g><path xmlns="http://www.w3.org/2000/svg" d="m402.022 424.714v47.257c0 4.418-3.582 8-8 8s-8-3.582-8-8v-47.257c0-36.795-29.775-66.571-66.573-66.571-17.411 0-33.209-8.87-42.258-23.729-2.299-3.773-1.103-8.695 2.671-10.993 3.771-2.301 8.694-1.104 10.993 2.671 6.122 10.051 16.812 16.051 28.594 16.051 45.637-.002 82.573 36.93 82.573 82.571zm23.476-146.922c8.058-11.947 7.358-27.499-1.74-38.699l-15.308-18.844c-3.473-4.274-4.605-9.943-3.032-15.165l9.049-30.024c4.138-13.73-1.152-28.389-13.162-36.474l-17.986-12.107c-6.012-4.047-8.777-11.369-6.883-18.222 5.616-20.298-9.332-40.554-30.778-41.469l-7.954-.338c-13.586-.578-24.9-10.057-27.515-23.049l-.561-2.789c-4.446-22.096-29.49-32.849-48.874-21.947-6.727 3.783-15.245 2.684-20.716-2.673l-6.682-6.542c-12.867-12.6-33.803-12.6-46.67 0l-14.598 14.293c-2.526 2.474-5.732 4.09-9.271 4.676l-30.18 4.989c-25.597 4.233-41.747 29.307-34.937 53.762l5.928 21.283c1.877 6.738-.835 13.94-6.751 17.921l-18.323 12.336c-11.899 8.012-17.14 22.535-13.04 36.139l9.156 30.384c1.545 5.128.433 10.695-2.977 14.893l-15.547 19.138c-9.016 11.098-9.709 26.508-1.725 38.345l14.973 22.201c4.003 5.936 3.666 13.677-.838 19.263l-2.217 2.748c-12.031 14.924-10.756 36.313 2.967 49.75 1.558 1.524 3.578 2.284 5.597 2.284 7.111 0 10.73-8.691 5.599-13.716-7.807-7.644-8.539-19.8-1.707-28.275l2.216-2.747c8.939-11.087 9.603-26.459 1.649-38.252l-14.974-22.202c-4.018-5.957-3.665-13.718.878-19.311l15.548-19.138c6.757-8.319 8.955-19.383 5.878-29.597l-9.157-30.385c-2.063-6.846.612-14.18 6.656-18.249l18.322-12.335c11.644-7.836 16.96-22.098 13.23-35.487l-5.928-21.283c-4.366-15.671 6.282-31.064 22.134-33.685l30.181-4.989c6.795-1.123 12.969-4.245 17.854-9.028l14.598-14.294c6.694-6.554 17.588-6.556 24.282 0l6.682 6.543c10.521 10.299 26.869 12.433 39.754 5.186 10.287-5.79 23.119.101 25.345 11.157l.561 2.789c4.07 20.232 21.555 34.986 42.52 35.88l7.954.338c11.168.475 18.907 10.85 16.038 21.217-3.732 13.494 1.641 27.865 13.368 35.761l17.986 12.107c6.155 4.143 8.879 11.611 6.777 18.583l-9.049 30.025c-3.105 10.307-.888 21.473 5.934 29.869l15.308 18.844c4.627 5.695 4.985 13.598.894 19.665l-14.727 21.837c-8.026 11.9-7.357 27.415 1.665 38.605 2.41 2.987 5.092 5.852 6.283 11.315.943 4.317 5.206 7.05 9.522 6.11 4.316-.942 7.052-5.205 6.11-9.522-2.038-9.334-6.722-14.55-9.462-17.947-4.587-5.688-4.93-13.572-.854-19.616zm-81.838 105.993c-57.916 16.11-115.435 3.468-160.12-31.258 14.493-7.597 24.94-22.255 26.314-39.797 68.278 20.158 136.617-31.119 137.165-101.795.005-.178.003-41.551.003-41.729 0-44.112-35.888-80-80-80h-27.448c-27.16 0-52.039 15.521-61.908 38.623-6.027 14.106-3.441 23.54-5.509 34.684-3.399 18.317-18.31 35.691-44.317 51.641-3.766 2.31-4.947 7.235-2.637 11.002 2.31 3.766 7.234 4.948 11.002 2.637 30.033-18.417 47.422-39.398 51.683-62.359 2.382-12.821-.146-20.463 4.491-31.317 7.388-17.291 26.354-28.909 47.195-28.909h27.448c35.29 0 64 28.71 64 64v40.892c0 50.178-40.822 91-91 91-35.572 0-68.094-20.923-82.852-53.303-1.832-4.021-6.577-5.795-10.597-3.962-4.021 1.832-5.795 6.576-3.962 10.597 10.626 23.314 29.091 41.562 51.41 52.216v2.157c0 18.444-14.945 33.342-33.427 33.342-45.733 0-82.573 37.021-82.573 82.571v47.257c0 4.418 3.582 8 8 8s8-3.582 8-8v-47.257c0-36.793 29.775-66.571 66.573-66.571 1.473 0 2.928-.074 4.367-.199 49.027 42.755 115.674 59.981 182.988 41.254 4.257-1.184 6.747-5.595 5.563-9.852-1.184-4.259-5.592-6.751-9.852-5.565z" fill="#ff1d74" data-original="#000000" style="" class=""/></g></svg>
